<mxfile host="app.diagrams.net" modified="2024-04-16T11:47:38.301Z" agent="Mozilla/5.0 (Macintosh; Intel Mac OS X 10_15_7) AppleWebKit/537.36 (KHTML, like Gecko) Chrome/122.0.0.0 Safari/537.36" etag="-zuSOiNtkeSFlftTPZRm" version="24.2.5" type="github">
  <diagram name="第 1 页" id="hfDCCfxJI4M5THJjY5hu">
    <mxGraphModel dx="1776" dy="967" grid="1" gridSize="5" guides="1" tooltips="1" connect="1" arrows="1" fold="1" page="1" pageScale="1" pageWidth="827" pageHeight="1169" math="1" shadow="0">
      <root>
        <mxCell id="0" />
        <mxCell id="1" parent="0" />
        <mxCell id="nAWpLfsRXZ3I_hJHh4ln-35" value="" style="rounded=0;whiteSpace=wrap;html=1;fillColor=none;strokeWidth=3;strokeColor=#000000;movable=1;resizable=1;rotatable=1;deletable=1;editable=1;locked=0;connectable=1;opacity=70;dashed=1;" vertex="1" parent="1">
          <mxGeometry x="185" y="660" width="145" height="155" as="geometry" />
        </mxCell>
        <mxCell id="nAWpLfsRXZ3I_hJHh4ln-22" value="" style="rounded=0;whiteSpace=wrap;html=1;fillColor=none;strokeWidth=3;strokeColor=#000000;movable=1;resizable=1;rotatable=1;deletable=1;editable=1;locked=0;connectable=1;opacity=70;dashed=1;" vertex="1" parent="1">
          <mxGeometry x="525" y="660" width="290" height="150" as="geometry" />
        </mxCell>
        <mxCell id="nAWpLfsRXZ3I_hJHh4ln-20" value="" style="rounded=0;whiteSpace=wrap;html=1;fillColor=none;strokeWidth=3;strokeColor=#000000;movable=1;resizable=1;rotatable=1;deletable=1;editable=1;locked=0;connectable=1;opacity=70;dashed=1;" vertex="1" parent="1">
          <mxGeometry x="405" y="670" width="280" height="150" as="geometry" />
        </mxCell>
        <mxCell id="nAWpLfsRXZ3I_hJHh4ln-12" value="" style="rounded=0;whiteSpace=wrap;html=1;fillColor=none;strokeWidth=3;dashed=1;strokeColor=#FF0000;movable=1;resizable=1;rotatable=1;deletable=1;editable=1;locked=0;connectable=1;" vertex="1" parent="1">
          <mxGeometry x="65" y="235" width="170" height="190" as="geometry" />
        </mxCell>
        <mxCell id="nAWpLfsRXZ3I_hJHh4ln-13" value="" style="rounded=0;whiteSpace=wrap;html=1;fillColor=none;strokeWidth=3;strokeColor=#0000CC;dashed=1;movable=1;resizable=1;rotatable=1;deletable=1;editable=1;locked=0;connectable=1;" vertex="1" parent="1">
          <mxGeometry x="259" y="230" width="170" height="190" as="geometry" />
        </mxCell>
        <mxCell id="nAWpLfsRXZ3I_hJHh4ln-2" value="&lt;font face=&quot;Times New Roman&quot;&gt;&lt;span style=&quot;font-size: 22px;&quot;&gt;$$x_{i-1}$$&lt;/span&gt;&lt;/font&gt;" style="rounded=1;whiteSpace=wrap;html=1;fillColor=#d5e8d4;strokeColor=#82b366;opacity=50;" vertex="1" parent="1">
          <mxGeometry x="115" y="250" width="90" height="40" as="geometry" />
        </mxCell>
        <mxCell id="nAWpLfsRXZ3I_hJHh4ln-5" value="&lt;font face=&quot;Times New Roman&quot;&gt;&lt;span style=&quot;font-size: 22px;&quot;&gt;$$\epsilon_\theta(x_{i-1},i-1)$$&lt;/span&gt;&lt;/font&gt;" style="rounded=1;whiteSpace=wrap;html=1;fillColor=#fad9d5;strokeColor=#ae4132;opacity=50;" vertex="1" parent="1">
          <mxGeometry x="90" y="350" width="140" height="50" as="geometry" />
        </mxCell>
        <mxCell id="nAWpLfsRXZ3I_hJHh4ln-6" value="&lt;font face=&quot;Times New Roman&quot;&gt;&lt;span style=&quot;font-size: 22px;&quot;&gt;$$x_i$$&lt;/span&gt;&lt;/font&gt;" style="rounded=1;whiteSpace=wrap;html=1;fillColor=#d5e8d4;strokeColor=#82b366;opacity=50;" vertex="1" parent="1">
          <mxGeometry x="299" y="250" width="90" height="40" as="geometry" />
        </mxCell>
        <mxCell id="nAWpLfsRXZ3I_hJHh4ln-7" value="&lt;font face=&quot;Times New Roman&quot;&gt;&lt;span style=&quot;font-size: 22px;&quot;&gt;$$\epsilon_\theta(x_{i},i)$$&lt;/span&gt;&lt;/font&gt;" style="rounded=1;whiteSpace=wrap;html=1;fillColor=#fad9d5;strokeColor=#ae4132;opacity=50;" vertex="1" parent="1">
          <mxGeometry x="274" y="350" width="140" height="50" as="geometry" />
        </mxCell>
        <mxCell id="nAWpLfsRXZ3I_hJHh4ln-10" value="" style="endArrow=none;html=1;rounded=0;strokeWidth=5;fillColor=#d80073;strokeColor=#FF0000;startArrow=block;startFill=1;" edge="1" parent="1">
          <mxGeometry width="50" height="50" relative="1" as="geometry">
            <mxPoint x="315" y="280" as="sourcePoint" />
            <mxPoint x="190" y="360" as="targetPoint" />
            <Array as="points">
              <mxPoint x="190" y="280" />
            </Array>
          </mxGeometry>
        </mxCell>
        <mxCell id="nAWpLfsRXZ3I_hJHh4ln-11" value="" style="endArrow=none;html=1;rounded=0;strokeWidth=5;fillColor=#d80073;strokeColor=#0000CC;dashed=1;" edge="1" parent="1">
          <mxGeometry width="50" height="50" relative="1" as="geometry">
            <mxPoint x="170" y="290" as="sourcePoint" />
            <mxPoint x="310" y="360" as="targetPoint" />
            <Array as="points">
              <mxPoint x="310" y="290" />
            </Array>
          </mxGeometry>
        </mxCell>
        <mxCell id="nAWpLfsRXZ3I_hJHh4ln-14" value="&lt;font face=&quot;Times New Roman&quot;&gt;&lt;span style=&quot;font-size: 22px;&quot;&gt;$$x_{i-1}$$&lt;/span&gt;&lt;/font&gt;" style="rounded=1;whiteSpace=wrap;html=1;fillColor=#d5e8d4;strokeColor=#82b366;opacity=90;" vertex="1" parent="1">
          <mxGeometry x="415" y="680" width="90" height="40" as="geometry" />
        </mxCell>
        <mxCell id="nAWpLfsRXZ3I_hJHh4ln-16" value="&lt;font face=&quot;Times New Roman&quot;&gt;&lt;span style=&quot;font-size: 22px;&quot;&gt;$$x_i$$&lt;/span&gt;&lt;/font&gt;" style="rounded=1;whiteSpace=wrap;html=1;fillColor=#d5e8d4;strokeColor=#82b366;opacity=90;" vertex="1" parent="1">
          <mxGeometry x="564" y="680" width="90" height="40" as="geometry" />
        </mxCell>
        <mxCell id="nAWpLfsRXZ3I_hJHh4ln-17" value="&lt;font face=&quot;Times New Roman&quot;&gt;&lt;span style=&quot;font-size: 22px;&quot;&gt;$$\epsilon_\theta(x_{i},i)$$&lt;/span&gt;&lt;/font&gt;" style="rounded=1;whiteSpace=wrap;html=1;fillColor=#fad9d5;strokeColor=#ae4132;opacity=90;" vertex="1" parent="1">
          <mxGeometry x="552" y="750" width="114" height="50" as="geometry" />
        </mxCell>
        <mxCell id="nAWpLfsRXZ3I_hJHh4ln-19" value="&lt;font face=&quot;Times New Roman&quot;&gt;&lt;span style=&quot;font-size: 22px;&quot;&gt;$$x_{i+1}$$&lt;/span&gt;&lt;/font&gt;" style="rounded=1;whiteSpace=wrap;html=1;fillColor=#d5e8d4;strokeColor=#82b366;opacity=90;" vertex="1" parent="1">
          <mxGeometry x="715" y="680" width="90" height="40" as="geometry" />
        </mxCell>
        <mxCell id="nAWpLfsRXZ3I_hJHh4ln-21" value="" style="endArrow=none;html=1;rounded=0;strokeWidth=3;fillColor=#d80073;strokeColor=#000000;startArrow=block;startFill=1;entryX=0.463;entryY=-0.003;entryDx=0;entryDy=0;entryPerimeter=0;" edge="1" parent="1" source="nAWpLfsRXZ3I_hJHh4ln-19" target="nAWpLfsRXZ3I_hJHh4ln-20">
          <mxGeometry width="50" height="50" relative="1" as="geometry">
            <mxPoint x="795" y="655" as="sourcePoint" />
            <mxPoint x="515" y="650" as="targetPoint" />
            <Array as="points">
              <mxPoint x="760" y="640" />
              <mxPoint x="535" y="640" />
            </Array>
          </mxGeometry>
        </mxCell>
        <mxCell id="nAWpLfsRXZ3I_hJHh4ln-23" value="" style="endArrow=none;html=1;rounded=0;strokeWidth=3;fillColor=#d80073;strokeColor=#000000;startArrow=block;startFill=1;entryX=0.5;entryY=1;entryDx=0;entryDy=0;exitX=0.5;exitY=1;exitDx=0;exitDy=0;" edge="1" parent="1" source="nAWpLfsRXZ3I_hJHh4ln-14" target="nAWpLfsRXZ3I_hJHh4ln-22">
          <mxGeometry width="50" height="50" relative="1" as="geometry">
            <mxPoint x="424" y="720" as="sourcePoint" />
            <mxPoint x="695" y="885" as="targetPoint" />
            <Array as="points">
              <mxPoint x="460" y="840" />
              <mxPoint x="670" y="840" />
            </Array>
          </mxGeometry>
        </mxCell>
        <mxCell id="nAWpLfsRXZ3I_hJHh4ln-29" value="" style="endArrow=none;html=1;rounded=0;exitX=1;exitY=0.5;exitDx=0;exitDy=0;entryX=0;entryY=0.5;entryDx=0;entryDy=0;strokeWidth=4;strokeColor=#00CC00;" edge="1" parent="1" source="nAWpLfsRXZ3I_hJHh4ln-14" target="nAWpLfsRXZ3I_hJHh4ln-16">
          <mxGeometry width="50" height="50" relative="1" as="geometry">
            <mxPoint x="630" y="705" as="sourcePoint" />
            <mxPoint x="680" y="655" as="targetPoint" />
          </mxGeometry>
        </mxCell>
        <mxCell id="nAWpLfsRXZ3I_hJHh4ln-30" value="" style="endArrow=none;html=1;rounded=0;exitX=0.5;exitY=1;exitDx=0;exitDy=0;entryX=0.5;entryY=0;entryDx=0;entryDy=0;strokeWidth=4;strokeColor=#00CC00;" edge="1" parent="1" source="nAWpLfsRXZ3I_hJHh4ln-16" target="nAWpLfsRXZ3I_hJHh4ln-17">
          <mxGeometry width="50" height="50" relative="1" as="geometry">
            <mxPoint x="630" y="705" as="sourcePoint" />
            <mxPoint x="680" y="655" as="targetPoint" />
          </mxGeometry>
        </mxCell>
        <mxCell id="nAWpLfsRXZ3I_hJHh4ln-31" value="" style="endArrow=none;html=1;rounded=0;entryX=0;entryY=0.5;entryDx=0;entryDy=0;exitX=1;exitY=0.5;exitDx=0;exitDy=0;strokeWidth=4;strokeColor=#00CC00;" edge="1" parent="1" source="nAWpLfsRXZ3I_hJHh4ln-16" target="nAWpLfsRXZ3I_hJHh4ln-19">
          <mxGeometry width="50" height="50" relative="1" as="geometry">
            <mxPoint x="630" y="705" as="sourcePoint" />
            <mxPoint x="680" y="655" as="targetPoint" />
          </mxGeometry>
        </mxCell>
        <mxCell id="nAWpLfsRXZ3I_hJHh4ln-32" value="&lt;font style=&quot;font-size: 18px;&quot;&gt;BELM inversion&lt;/font&gt;" style="text;html=1;align=center;verticalAlign=middle;resizable=0;points=[];autosize=1;strokeColor=none;fillColor=none;" vertex="1" parent="1">
          <mxGeometry x="603" y="605" width="145" height="40" as="geometry" />
        </mxCell>
        <mxCell id="nAWpLfsRXZ3I_hJHh4ln-33" value="&lt;font style=&quot;font-size: 18px;&quot;&gt;BELM&amp;nbsp;&lt;/font&gt;" style="text;html=1;align=center;verticalAlign=middle;resizable=0;points=[];autosize=1;strokeColor=none;fillColor=none;" vertex="1" parent="1">
          <mxGeometry x="525" y="840" width="75" height="40" as="geometry" />
        </mxCell>
        <mxCell id="nAWpLfsRXZ3I_hJHh4ln-34" value="" style="rounded=0;whiteSpace=wrap;html=1;fillColor=none;strokeWidth=3;strokeColor=#000000;movable=1;resizable=1;rotatable=1;deletable=1;editable=1;locked=0;connectable=1;opacity=70;dashed=1;" vertex="1" parent="1">
          <mxGeometry x="20" y="665" width="130" height="160" as="geometry" />
        </mxCell>
        <mxCell id="nAWpLfsRXZ3I_hJHh4ln-36" value="&lt;font face=&quot;Times New Roman&quot;&gt;&lt;span style=&quot;font-size: 22px;&quot;&gt;$$x_{i-1}$$&lt;/span&gt;&lt;/font&gt;" style="rounded=1;whiteSpace=wrap;html=1;fillColor=#d5e8d4;strokeColor=#82b366;opacity=90;" vertex="1" parent="1">
          <mxGeometry x="39" y="680" width="90" height="40" as="geometry" />
        </mxCell>
        <mxCell id="nAWpLfsRXZ3I_hJHh4ln-37" value="&lt;font face=&quot;Times New Roman&quot;&gt;&lt;span style=&quot;font-size: 22px;&quot;&gt;$$x_i$$&lt;/span&gt;&lt;/font&gt;" style="rounded=1;whiteSpace=wrap;html=1;fillColor=#d5e8d4;strokeColor=#82b366;opacity=90;" vertex="1" parent="1">
          <mxGeometry x="213" y="680" width="90" height="40" as="geometry" />
        </mxCell>
        <mxCell id="nAWpLfsRXZ3I_hJHh4ln-38" value="&lt;font face=&quot;Times New Roman&quot;&gt;&lt;span style=&quot;font-size: 22px;&quot;&gt;$$\epsilon_\theta(x_{i},i)$$&lt;/span&gt;&lt;/font&gt;" style="rounded=1;whiteSpace=wrap;html=1;fillColor=#fad9d5;strokeColor=#ae4132;opacity=90;" vertex="1" parent="1">
          <mxGeometry x="201" y="750" width="114" height="50" as="geometry" />
        </mxCell>
        <mxCell id="nAWpLfsRXZ3I_hJHh4ln-40" value="" style="endArrow=none;html=1;rounded=0;strokeWidth=3;fillColor=#d80073;strokeColor=#000000;startArrow=block;startFill=1;entryX=0.463;entryY=-0.003;entryDx=0;entryDy=0;entryPerimeter=0;exitX=0.5;exitY=0;exitDx=0;exitDy=0;" edge="1" parent="1" source="nAWpLfsRXZ3I_hJHh4ln-37" target="nAWpLfsRXZ3I_hJHh4ln-34">
          <mxGeometry width="50" height="50" relative="1" as="geometry">
            <mxPoint x="305" y="610" as="sourcePoint" />
            <mxPoint x="144" y="650" as="targetPoint" />
            <Array as="points">
              <mxPoint x="258" y="640" />
              <mxPoint x="80" y="640" />
            </Array>
          </mxGeometry>
        </mxCell>
        <mxCell id="nAWpLfsRXZ3I_hJHh4ln-42" value="" style="endArrow=none;html=1;rounded=0;exitX=1;exitY=0.25;exitDx=0;exitDy=0;strokeWidth=4;strokeColor=#00CC00;entryX=0;entryY=0.25;entryDx=0;entryDy=0;" edge="1" parent="1" source="nAWpLfsRXZ3I_hJHh4ln-36" target="nAWpLfsRXZ3I_hJHh4ln-37">
          <mxGeometry width="50" height="50" relative="1" as="geometry">
            <mxPoint x="259" y="705" as="sourcePoint" />
            <mxPoint x="190" y="690" as="targetPoint" />
          </mxGeometry>
        </mxCell>
        <mxCell id="nAWpLfsRXZ3I_hJHh4ln-43" value="" style="endArrow=none;html=1;rounded=0;exitX=0.5;exitY=1;exitDx=0;exitDy=0;entryX=0.5;entryY=0;entryDx=0;entryDy=0;strokeWidth=4;strokeColor=#00CC00;" edge="1" parent="1" source="nAWpLfsRXZ3I_hJHh4ln-37" target="nAWpLfsRXZ3I_hJHh4ln-38">
          <mxGeometry width="50" height="50" relative="1" as="geometry">
            <mxPoint x="259" y="705" as="sourcePoint" />
            <mxPoint x="309" y="655" as="targetPoint" />
          </mxGeometry>
        </mxCell>
        <mxCell id="nAWpLfsRXZ3I_hJHh4ln-45" value="&lt;font style=&quot;font-size: 18px;&quot;&gt;DDIM inversion&lt;/font&gt;" style="text;html=1;align=center;verticalAlign=middle;resizable=0;points=[];autosize=1;strokeColor=none;fillColor=none;" vertex="1" parent="1">
          <mxGeometry x="105" y="605" width="145" height="40" as="geometry" />
        </mxCell>
        <mxCell id="nAWpLfsRXZ3I_hJHh4ln-46" value="&lt;font style=&quot;font-size: 18px;&quot;&gt;DDIM&lt;/font&gt;" style="text;html=1;align=center;verticalAlign=middle;resizable=0;points=[];autosize=1;strokeColor=none;fillColor=none;" vertex="1" parent="1">
          <mxGeometry x="136" y="840" width="65" height="40" as="geometry" />
        </mxCell>
        <mxCell id="nAWpLfsRXZ3I_hJHh4ln-48" value="" style="endArrow=none;html=1;rounded=0;exitX=1;exitY=0.75;exitDx=0;exitDy=0;entryX=0;entryY=0.75;entryDx=0;entryDy=0;strokeWidth=4;strokeColor=#CC00CC;" edge="1" parent="1" source="nAWpLfsRXZ3I_hJHh4ln-36" target="nAWpLfsRXZ3I_hJHh4ln-37">
          <mxGeometry width="50" height="50" relative="1" as="geometry">
            <mxPoint x="128" y="945" as="sourcePoint" />
            <mxPoint x="192" y="945" as="targetPoint" />
          </mxGeometry>
        </mxCell>
        <mxCell id="nAWpLfsRXZ3I_hJHh4ln-50" value="" style="endArrow=none;html=1;rounded=0;exitX=0.5;exitY=1;exitDx=0;exitDy=0;entryX=0.5;entryY=0;entryDx=0;entryDy=0;strokeWidth=4;strokeColor=#CC00CC;" edge="1" parent="1" source="nAWpLfsRXZ3I_hJHh4ln-36" target="nAWpLfsRXZ3I_hJHh4ln-47">
          <mxGeometry width="50" height="50" relative="1" as="geometry">
            <mxPoint x="115" y="955" as="sourcePoint" />
            <mxPoint x="179" y="955" as="targetPoint" />
          </mxGeometry>
        </mxCell>
        <mxCell id="nAWpLfsRXZ3I_hJHh4ln-51" value="" style="endArrow=none;html=1;rounded=0;strokeWidth=3;fillColor=#d80073;strokeColor=#000000;startArrow=block;startFill=1;entryX=0.5;entryY=1;entryDx=0;entryDy=0;exitX=0.25;exitY=1;exitDx=0;exitDy=0;" edge="1" parent="1" source="nAWpLfsRXZ3I_hJHh4ln-36" target="nAWpLfsRXZ3I_hJHh4ln-35">
          <mxGeometry width="50" height="50" relative="1" as="geometry">
            <mxPoint x="50" y="905" as="sourcePoint" />
            <mxPoint x="270" y="860" as="targetPoint" />
            <Array as="points">
              <mxPoint x="60" y="840" />
              <mxPoint x="258" y="840" />
            </Array>
          </mxGeometry>
        </mxCell>
        <mxCell id="nAWpLfsRXZ3I_hJHh4ln-47" value="&lt;font face=&quot;Times New Roman&quot;&gt;&lt;span style=&quot;font-size: 22px;&quot;&gt;$$\epsilon_\theta(x_{i},i)$$&lt;/span&gt;&lt;/font&gt;" style="rounded=1;whiteSpace=wrap;html=1;fillColor=#fad9d5;strokeColor=#ae4132;opacity=90;" vertex="1" parent="1">
          <mxGeometry x="27" y="750" width="114" height="50" as="geometry" />
        </mxCell>
      </root>
    </mxGraphModel>
  </diagram>
</mxfile>
